<svg width="344" height="344" viewBox="0 0 344 344" fill="none" xmlns="http://www.w3.org/2000/svg">
<path d="M260 250.269C260 230.003 244.767 212.408 223.772 208.435L208.669 205.576C204.748 204.829 201.509 202.141 200.219 198.568L199.301 196.024C204.292 192.429 208.342 187.741 211.069 182.333H214.933C227.36 182.333 237.467 172.765 237.467 161C237.467 156.195 235.72 151.805 232.881 148.237L234.937 142.381C236.616 137.619 237.467 132.659 237.467 127.629C237.467 101.917 215.373 81 188.214 81H173.28C159.422 81 146.511 87.1813 138.303 97.64L134.196 98.616C122.028 101.496 113.533 111.795 113.533 123.667C113.533 132.243 116.716 142.792 118.44 147.869C115.415 151.501 113.533 156.024 113.533 161C113.533 172.765 123.64 182.333 136.067 182.333H139.925C142.652 187.741 146.702 192.429 151.694 196.024L150.775 198.568C149.485 202.147 146.246 204.835 142.325 205.576L127.222 208.435C106.233 212.413 91 230.003 91 250.269V273H260V250.269ZM214.933 171.667H214.483C214.747 169.917 214.933 168.147 214.933 166.333V150.333C221.147 150.333 226.2 155.117 226.2 161C226.2 166.883 221.147 171.667 214.933 171.667ZM136.067 171.667C129.853 171.667 124.8 166.883 124.8 161C124.8 155.117 129.853 150.333 136.067 150.333V166.333C136.067 168.147 136.253 169.917 136.517 171.667H136.067ZM136.872 139.667H136.067C133.233 139.667 130.552 140.216 128.056 141.123C126.563 136.211 124.8 129.24 124.8 123.667C124.8 116.696 129.791 110.653 136.923 108.957L145.176 107.005L146.387 105.293C152.392 96.76 162.448 91.6667 173.275 91.6667H188.209C209.159 91.6667 226.2 107.8 226.2 127.629C226.2 131.512 225.547 135.331 224.245 139.005L223.445 141.272C220.82 140.253 217.947 139.667 214.933 139.667H213.897C211.565 133.475 205.368 129 198.033 129H175.5C172.39 129 169.867 126.611 169.867 123.667C169.867 120.723 172.39 118.333 175.5 118.333H181.133V107.667H175.5C167.76 107.667 161.22 112.621 159.22 119.352L157.406 119.784C146.956 122.259 139.21 130.067 136.872 139.667ZM147.333 166.333V145.656C147.333 138.328 152.561 131.965 160.053 130.152C162.684 135.757 168.616 139.667 175.5 139.667H198.033C201.143 139.667 203.667 142.056 203.667 145V166.333C203.667 181.037 191.031 193 175.5 193C159.969 193 147.333 181.037 147.333 166.333ZM175.5 203.667C180.356 203.667 184.992 202.792 189.29 201.261L189.561 202.013C190.558 204.776 192.141 207.261 194.152 209.373L175.5 223.507L156.848 209.373C158.859 207.261 160.442 204.776 161.439 202.013L161.71 201.261C166.008 202.792 170.644 203.667 175.5 203.667ZM200.704 218.077L194.867 237.416L184.699 230.195L200.704 218.077ZM166.306 230.2L156.138 237.421L150.302 218.083L166.306 230.2ZM248.733 262.333H102.267V250.269C102.267 235.069 113.691 221.875 129.436 218.893L138.314 217.213L149.795 255.251L175.387 237.08L175.5 237.16L175.613 237.075L201.205 255.245L212.686 217.208L221.564 218.888C237.309 221.875 248.733 235.075 248.733 250.269V262.333Z" fill="url(#paint0_linear)"/>
<path d="M32.25 123.625C17.4311 123.625 5.375 135.681 5.375 150.5V291.228L19.952 330.106H19.9574C21.8709 335.201 26.8105 338.625 32.25 338.625C37.6895 338.625 42.6291 335.201 44.548 330.106L59.125 291.228V150.5C59.125 135.681 47.0689 123.625 32.25 123.625ZM32.25 134.375C41.1403 134.375 48.375 141.61 48.375 150.5V155.875H16.125V150.5C16.125 141.61 23.3597 134.375 32.25 134.375ZM18.5061 295.625H45.9939L41.9626 306.375H22.5374L18.5061 295.625ZM16.125 284.875V188.125H26.875V284.875H16.125ZM37.625 284.875V188.125H48.375V284.875H37.625ZM16.125 177.375V166.625H48.375V177.375H16.125ZM30.014 326.327L26.5632 317.125H37.9314L34.4806 326.327C33.7819 328.176 30.7181 328.176 30.014 326.327Z" fill="url(#paint1_linear)"/>
<path d="M252.625 129.855V150.5C252.625 165.319 264.681 177.375 279.5 177.375C294.319 177.375 306.375 165.319 306.375 150.5V129.855C308.348 122.529 313.298 116.439 319.055 109.43C328.224 98.2657 338.625 85.613 338.625 64.5C338.625 31.9006 312.099 5.375 279.5 5.375C246.901 5.375 220.375 31.9006 220.375 64.5C220.375 85.613 230.776 98.2657 239.945 109.43C245.702 116.439 250.652 122.529 252.625 129.855ZM263.375 69.875H258C255.033 69.875 252.625 67.467 252.625 64.5C252.625 61.533 255.033 59.125 258 59.125C260.967 59.125 263.375 61.533 263.375 64.5V69.875ZM284.875 123.625H274.125V80.625H284.875V123.625ZM295.625 134.375V145.125H263.375V134.375H295.625ZM279.5 166.625C272.502 166.625 266.589 162.115 264.364 155.875H294.631C292.411 162.115 286.498 166.625 279.5 166.625ZM279.5 16.125C306.176 16.125 327.875 37.8239 327.875 64.5C327.875 81.7591 319.167 92.3586 310.745 102.609C305.477 109.021 300.07 115.638 297.076 123.625H295.625V80.625H301C309.89 80.625 317.125 73.3903 317.125 64.5C317.125 55.6097 309.89 48.375 301 48.375C292.11 48.375 284.875 55.6097 284.875 64.5V69.875H274.125V64.5C274.125 55.6097 266.89 48.375 258 48.375C249.11 48.375 241.875 55.6097 241.875 64.5C241.875 73.3903 249.11 80.625 258 80.625H263.375V123.625H261.924C258.93 115.632 253.523 109.021 248.255 102.609C239.833 92.3586 231.125 81.7591 231.125 64.5C231.125 37.8239 252.824 16.125 279.5 16.125ZM295.625 69.875V64.5C295.625 61.533 298.033 59.125 301 59.125C303.967 59.125 306.375 61.533 306.375 64.5C306.375 67.467 303.967 69.875 301 69.875H295.625Z" fill="url(#paint2_linear)"/>
<path d="M177.375 311.626V291.508L134.681 317.125L177.375 342.748V322.376C251.824 319.764 313.346 263.203 321.581 188.716L310.895 187.539C303.268 256.56 246.331 309.02 177.375 311.626ZM166.625 323.752L155.568 317.125L166.625 310.498V323.752Z" fill="url(#paint3_linear)"/>
<path d="M166.625 52.4976L209.318 26.875L166.625 1.25238V21.6935C109.451 23.7468 57.9853 58.1521 34.5181 110.682L44.3328 115.068C66.0693 66.4028 113.681 34.4914 166.625 32.4489V52.4976ZM177.375 20.2476L188.431 26.875L177.375 33.5024V20.2476Z" fill="url(#paint4_linear)"/>
<defs>
<linearGradient id="paint0_linear" x1="175.5" y1="81" x2="175.5" y2="273" gradientUnits="userSpaceOnUse">
<stop offset="0.53125" stop-color="#C0C0C0"/>
<stop offset="1" stop-color="#C0C0C0" stop-opacity="0"/>
</linearGradient>
<linearGradient id="paint1_linear" x1="32.25" y1="123.625" x2="32.25" y2="338.625" gradientUnits="userSpaceOnUse">
<stop stop-color="#C4C4C4"/>
<stop offset="1" stop-color="#C4C4C4" stop-opacity="0"/>
</linearGradient>
<linearGradient id="paint2_linear" x1="279.5" y1="5.375" x2="279.5" y2="177.375" gradientUnits="userSpaceOnUse">
<stop stop-color="#FFD600"/>
<stop offset="1" stop-color="#FFD600" stop-opacity="0"/>
</linearGradient>
<linearGradient id="paint3_linear" x1="228.131" y1="187.539" x2="228.131" y2="342.748" gradientUnits="userSpaceOnUse">
<stop stop-color="#DADADA"/>
<stop offset="1" stop-color="#DADADA" stop-opacity="0"/>
</linearGradient>
<linearGradient id="paint4_linear" x1="122" y1="91.5" x2="121.918" y2="115.068" gradientUnits="userSpaceOnUse">
<stop stop-color="#E1E1E1"/>
<stop offset="1" stop-color="#E1E1E1" stop-opacity="0"/>
</linearGradient>
</defs>
</svg>
